<?xml version="1.0" encoding="UTF-8"?>
<svg width="320px" height="56px" viewBox="0 0 320 56" version="1.1" xmlns="http://www.w3.org/2000/svg" xmlns:xlink="http://www.w3.org/1999/xlink">
    <title>SVG/memo-bank-logo-white</title>
    <g id="memo-bank-logo-white" stroke="none" stroke-width="1" fill="none" fill-rule="evenodd">
        <path d="M28,28 L28,42 L14,56 L14,42 L0,42 L14,28 L28,28 Z M56,28 L56,42 L42,56 L42,42 L28,42 L42,28 L56,28 Z M256.938573,17.4033854 C263.024738,17.4033854 266.06782,20.3919054 266.06782,26.3689453 L266.06782,26.3689453 L266.06782,42 L260.773798,42 L260.773798,38.2447917 L260.679682,38.2447917 L260.510822,38.5278927 C258.853493,41.2181517 256.470607,42.5632813 253.362167,42.5632813 C250.993582,42.5632813 249.138713,41.9217665 247.797561,40.638737 C246.456409,39.3557075 245.785832,37.6580404 245.785832,35.5457357 C245.785832,31.0081923 248.405393,28.3638997 253.644515,27.6128581 L253.644515,27.6128581 L260.797327,26.6036458 L260.793938,26.3366821 C260.710337,23.0880303 259.080124,21.4637044 255.903297,21.4637044 C253.032761,21.4637044 250.444572,22.4494466 248.138731,24.420931 L248.138731,24.420931 L248.138731,19.6565104 L248.522842,19.4368307 C250.97417,18.0812005 253.779414,17.4033854 256.938573,17.4033854 Z M193.345475,17.4033854 C197.110113,17.4033854 200.043394,18.5064779 202.145317,20.7126628 C204.24724,22.9188477 205.298201,25.9777778 205.298201,29.8894531 C205.298201,33.722895 204.164888,36.7935601 201.898262,39.1014486 C199.631636,41.409337 196.584632,42.5632813 192.75725,42.5632813 C189.03967,42.5632813 186.071096,41.4406304 183.851528,39.1953288 C181.63196,36.9500271 180.522176,33.9732422 180.522176,30.264974 C180.522176,26.228125 181.679018,23.0753147 183.992702,20.806543 C186.306386,18.5377713 189.423977,17.4033854 193.345475,17.4033854 Z M126.542939,17.4033854 C129.836997,17.4033854 132.385971,18.4595378 134.18986,20.5718424 C135.993749,22.6841471 136.895694,25.6179036 136.895694,29.373112 L136.895694,29.373112 L136.895694,31.4619466 L120.47246,31.4619466 L120.487548,31.8085362 C120.609169,33.8627184 121.290402,35.4605023 122.531246,36.601888 C123.841027,37.806684 125.640994,38.409082 127.931149,38.409082 C130.503652,38.409082 132.864394,37.6423937 135.013375,36.1090169 L135.013375,36.1090169 L135.013375,40.4979167 L134.722932,40.6736093 C132.563661,41.9333906 129.758567,42.5632813 126.307649,42.5632813 C122.762615,42.5632813 119.982272,41.4719238 117.966622,39.289209 C115.950972,37.1064941 114.943147,34.035829 114.943147,30.0772135 C114.943147,26.3376519 116.052931,23.2904568 118.272499,20.9356283 C120.492067,18.5807997 123.24888,17.4033854 126.542939,17.4033854 Z M82.7363753,8.34394531 L91.6068039,30.7578451 L91.7385662,31.096231 C92.3388169,32.6481057 92.7341039,33.8183398 92.9244272,34.6069336 L92.9244272,34.6069336 L93.0420722,34.6069336 L93.1647591,34.2350051 C93.6891194,32.653411 94.1188035,31.4630642 94.4538115,30.6639648 L94.4538115,30.6639648 L103.488943,8.34394531 L111.088806,8.34394531 L111.088806,42 L105.535965,42 L105.535965,20.2197917 L105.537914,19.8010804 C105.553507,18.0979045 105.66266,16.0547601 105.865371,13.6716471 L105.865371,13.6716471 L105.771255,13.6716471 L105.692314,14.0036998 C105.379337,15.3024686 105.099774,16.2479367 104.853624,16.8401042 L104.853624,16.8401042 L94.7832173,42 L90.9244632,42 L80.8305272,17.0278646 L80.7650916,16.8513531 C80.5022352,16.1180876 80.2260132,15.0581856 79.9364257,13.6716471 L79.9364257,13.6716471 L79.8423097,13.6716471 L79.8606623,13.8798852 C79.9739152,15.2392315 80.0305416,17.3681803 80.0305416,20.2667318 L80.0305416,42 L74.8541642,42 L74.8541642,8.34394531 L82.7363753,8.34394531 Z M230.201491,8.34394531 L230.623211,8.34798269 C233.687614,8.40719762 236.131308,9.11777674 237.954293,10.4797201 C239.860141,11.9035699 240.813065,13.757704 240.813065,16.0421224 C240.813065,17.95102 240.271898,19.6095703 239.189565,21.0177734 C238.107231,22.4259766 236.609219,23.4273655 234.695528,24.0219401 L234.695528,24.0219401 L234.695528,24.1158203 L235.078128,24.1656217 C237.221711,24.4788214 238.949046,25.3188778 240.260134,26.685791 C241.648344,28.1331109 242.342449,30.0146267 242.342449,32.3303385 C242.342449,35.2093316 241.205215,37.5406901 238.930746,39.3244141 C236.656277,41.108138 233.78574,42 230.319136,42 L230.319136,42 L219.495801,42 L219.495801,8.34394531 L230.201491,8.34394531 Z M284.763471,17.4033854 C287.383031,17.4033854 289.382996,18.252219 290.763363,19.9498861 C292.14373,21.6475532 292.833914,24.1001736 292.833914,27.3077474 L292.833914,27.3077474 L292.833914,42 L287.375188,42 L287.375188,28.4577799 L287.372721,28.1550817 C287.301997,23.8662772 285.710691,21.721875 282.598804,21.721875 C280.936089,21.721875 279.563564,22.3438314 278.481231,23.5877441 C277.398897,24.8316569 276.857731,26.4002387 276.857731,28.2934896 L276.857731,28.2934896 L276.857731,42 L271.375476,42 L271.375476,17.9666667 L276.857731,17.9666667 L276.857731,21.9565755 L276.951847,21.9565755 L277.128914,21.6675593 C278.92456,18.8247767 281.469412,17.4033854 284.763471,17.4033854 Z M303.623824,6.41940104 L303.623824,28.9741211 L303.71794,28.9741211 L312.56484,17.9666667 L319.129427,17.9666667 L309.176665,29.5608724 L320,42 L313.082477,42 L303.71794,30.4527344 L303.623824,30.4527344 L303.623824,42 L298.14157,42 L298.14157,6.41940104 L303.623824,6.41940104 Z M168.814635,17.4033854 C174.116501,17.4033854 176.767434,20.6657227 176.767434,27.1903971 L176.767434,27.1903971 L176.767434,42 L171.308708,42 L171.308708,28.9037109 L171.305743,28.5117416 C171.270156,26.1946428 170.914288,24.5024585 170.238139,23.4351888 C169.524427,22.3086263 168.320527,21.7453451 166.62644,21.7453451 C165.199014,21.7453451 163.987271,22.45727 162.991211,23.8811198 C161.99515,25.3049696 161.49712,27.0104601 161.49712,28.9975911 L161.49712,28.9975911 L161.49712,42 L156.014866,42 L156.014866,28.4577799 L156.012295,28.149204 C155.940321,23.8799647 154.356893,21.7453451 151.26201,21.7453451 C149.787527,21.7453451 148.575784,22.4181532 147.626781,23.7637695 C146.677779,25.1093859 146.203278,26.8539931 146.203278,28.9975911 L146.203278,28.9975911 L146.203278,42 L140.744552,42 L140.744552,17.9666667 L146.203278,17.9666667 L146.203278,21.7688151 L146.297394,21.7688151 L146.474149,21.4826369 C148.208305,18.7631359 150.682674,17.4033854 153.897257,17.4033854 C155.559972,17.4033854 157.014848,17.8610514 158.261884,18.7763835 C159.508921,19.6917155 160.359886,20.8925998 160.814779,22.3790365 C162.602983,19.0619358 165.269601,17.4033854 168.814635,17.4033854 Z M260.797327,30.1945638 L255.738595,30.8986654 L255.383502,30.9487302 C253.990697,31.1614883 252.92869,31.5242325 252.197482,32.0369629 C251.405339,32.5924208 251.009268,33.566428 251.009268,34.9589844 C251.009268,35.97602 251.373967,36.8092068 252.103366,37.4585449 C252.832764,38.107883 253.809217,38.4325521 255.032725,38.4325521 C256.69544,38.4325521 258.071886,37.8497125 259.162062,36.6840332 C260.252239,35.5183539 260.797327,34.0514757 260.797327,32.2833984 L260.797327,32.2833984 L260.797327,30.1945638 Z M193.016069,21.7453451 C190.882774,21.7453451 189.19653,22.4885634 187.957337,23.975 C186.718143,25.4614366 186.098547,27.5111545 186.098547,30.1241536 C186.098547,32.6432726 186.725986,34.626492 187.980866,36.0738118 C189.235745,37.5211317 190.914146,38.2447917 193.016069,38.2447917 C195.16505,38.2447917 196.816001,37.5328668 197.968921,36.1090169 C199.121842,34.6851671 199.698302,32.6589193 199.698302,30.0302734 C199.698302,27.3859809 199.121842,25.3440864 197.968921,23.9045898 C196.816001,22.4650933 195.16505,21.7453451 193.016069,21.7453451 Z M229.119158,26.8852865 L225.072172,26.8852865 L225.072172,37.5406901 L229.848556,37.5406901 C231.934793,37.5406901 233.546529,37.059554 234.683763,36.0972819 C235.820998,35.1350098 236.389615,33.8089518 236.389615,32.1191081 C236.389615,28.6298937 233.966129,26.8852865 229.119158,26.8852865 L229.119158,26.8852865 Z M56,0 L56,14 L42,28 L42,14 L28,14 L42,0 L56,0 Z M28,0 L28,14 L14,28 L14,14 L0,14 L14,0 L28,0 Z M126.472352,21.4167643 C124.903753,21.4167643 123.574365,21.9878689 122.484188,23.1300781 C121.394012,24.2722873 120.723436,25.7665473 120.47246,27.6128581 L120.47246,27.6128581 L131.6252,27.6128581 C131.609514,25.6570204 131.146777,24.1353787 130.23699,23.0479329 C129.327202,21.9604872 128.072323,21.4167643 126.472352,21.4167643 Z M229.142687,12.8267253 L225.072172,12.8267253 L225.072172,22.4025065 L228.695636,22.4025065 C230.640699,22.4025065 232.166162,21.9448405 233.272024,21.0295085 C234.377886,20.1141764 234.930818,18.8194119 234.930818,17.1452148 C234.930818,14.2662218 233.001441,12.8267253 229.142687,12.8267253 L229.142687,12.8267253 Z" id="logo+wordmark" fill="#FFFFFF" fill-rule="nonzero"></path>
    </g>
</svg>